) (`-.                           (` .-') /`           ) (`-.
       ( OO ).                          `.( OO ),'            ( OO ).
      (_/.  _)-.-'),-----. ,--.     ,--./  .--.  .-'),-----.(_/.  _)-.
         `.'  ( OO'  .-.  '|  |.-') |      |  | ( OO'  .-.  '  `.'  /
             /Y   |  | |  ||  | OO )|  |   |  |,/   |  | |  |      /
             _) |  ||  ||  |`-' ||  |.'.|  |_)_) |  ||  |      |
        .'    _) |  | |  (|  '---.'|         |    |  | |  | .'    _)
       /  .'.    `'  '-'  '|      | |   ,'.   |    `'  '-'  '/  .'.  
      '--'   '--'   `-----' `------' '--'   '--'      `-----''--'   '--'


      ▀▀▀▀▀▀▀▀▀▀▀▀▀▀▀▀▀▀▀▀▀▀▀▀▀▀▀▀▀▀▀▀▀▀▀▀▀▀▀▀▀▀▀▀▀▀▀▀▀▀▀▀▀▀▀▀▀▀▀▀▀▀▀▀▀▀▀▀▀▀

            █░░░░░░░░░░░░░░░░░░░░░░░░░░░░░░░░░░░░░░░░░░░░░░█
           ██ The Goods Live Hard Sell Hard[2009]DvDrip-LW ██
            █░░░░░░░░░░░░░░░░░░░░░░░░░░░░░░░░░░░░░░░░░░░░░░█

File Name    : The Goods Live Hard Sell Hard[2009]DvDrip-LW
Type         : Movie
Format       : AVI
File Size    : 700 MB
Duration     : 01:29:12
Language     : English
Source       : DvD
Subtitles    : None
Genre        : Comedy
IMDB Link    : http://www.imdb.com/title/tt1092633/
IMDB Rating  : 6.0/10
IMDB Votes   : 2,286 Votes
     ▄▄▄▄▄▄▄▄▄▄▄▄▄▄▄▄▄▄▄▄▄▄▄▄▄▄▄▄▄▄▄▄▄▄▄▄▄▄▄▄▄▄▄▄▄▄▄▄▄▄▄▄▄▄▄▄▄▄▄▄▄▄▄▄▄▄▄▄▄▄
 
                        █░░░░░░░░░░░░░░░░░░░░░░░░█
                       ██       Video Info       ██
                        █░░░░░░░░░░░░░░░░░░░░░░░░█

Format                           : MPEG-4 Visual
Format profile                   : Streaming Video@L1
Format settings, BVOP            : Yes
Format settings, QPel            : No
Format settings, GMC             : No warppoints
Format settings, Matrix          : Default (H.263)
Muxing mode                      : Packed bitstream
Codec ID                         : XVID
Codec ID/Hint                    : XviD
Duration                         : 1h 29mn
Bit rate                         : 936 Kbps
Width                            : 592 pixels
Height                           : 336 pixels
Display aspect ratio             : 16/9
Frame rate                       : 23.976 fps
Resolution                       : 24 bits
Colorimetry                      : 4:2:0
Scan type                        : Progressive
Bits/(Pixel*Frame)               : 0.196
Stream size                      : 597 MiB (85%)
Writing library                  : XviD 55
     ▄▄▄▄▄▄▄▄▄▄▄▄▄▄▄▄▄▄▄▄▄▄▄▄▄▄▄▄▄▄▄▄▄▄▄▄▄▄▄▄▄▄▄▄▄▄▄▄▄▄▄▄▄▄▄▄▄▄▄▄▄▄▄▄▄▄▄▄▄▄

                         █░░░░░░░░░░░░░░░░░░░░░░░░█
                        ██      Sound Info        ██
                         █░░░░░░░░░░░░░░░░░░░░░░░░█

Format                           : MPEG Audio
Format version                   : Version 1
Format profile                   : Layer 3
Codec ID                         : 55
Codec ID/Hint                    : MP3
Duration                         : 1h 29mn
Bit rate mode                    : Variable
Bit rate                         : 149 Kbps
Minimum bit rate                 : 32.0 Kbps
Channel(s)                       : 2 channels
Sampling rate                    : 48.0 KHz
Resolution                       : 16 bits
Stream size                      : 95.1 MiB (14%)
Alignment                        : Aligned on interleaves
Interleave, duration             : 24 ms (0.58 video frame)
Interleave, preload duration     : 123 ms
Writing library                  : LAME3.98b
Encoding settings                : VBR
    ▄▄▄▄▄▄▄▄▄▄▄▄▄▄▄▄▄▄▄▄▄▄▄▄▄▄▄▄▄▄▄▄▄▄▄▄▄▄▄▄▄▄▄▄▄▄▄▄▄▄▄▄▄▄▄▄▄▄▄▄▄▄▄▄▄▄▄▄▄▄

                          █░░░░░░░░░░░░░░░░░░░░░░░░█
                         ██          Plot          ██
                          █░░░░░░░░░░░░░░░░░░░░░░░░█

When businesses are failing, they call in Don Ready 
(Jeremy Piven), a fast-talking closer who can sell 
anything to anybody. Hired to rescue a flagging auto 
dealership during a Fourth of July sale, Don spends his 
days on the lot and his nights at local strip clubs. 
Everything's going swimmingly à until he gets blindsided 
by love. Ving Rhames and Kathryn Hahn co-star in this 
comedy from "Chappelle's Show" producer Neal Brennan.

Starring: Jeremy Piven, Ving Rhames

Director: Neal Brennan
    ▄▄▄▄▄▄▄▄▄▄▄▄▄▄▄▄▄▄▄▄▄▄▄▄▄▄▄▄▄▄▄▄▄▄▄▄▄▄▄▄▄▄▄▄▄▄▄▄▄▄▄▄▄▄▄▄▄▄▄▄▄▄▄▄▄▄▄▄▄▄

ScreenShots 
http://imgshack.info/images/ink8mcn4t64te91rgupt.png 
http://imgshack.info/images/6pnbz3rs1cmo747jum.png 
http://imgshack.info/images/c84xbo1thpx738z2quf8.png 
http://imgshack.info/images/bd8xcqrjw3ul1v4unqqu.jpg 
http://torrentz.leadhoster.com/